# File created by Blade
# Date/Time:  Wed Jan 21 17:16:23 2015
# Frame Rate: 120.000 fps
#------------------------------------------------------
:FULLY-SPECIFIED
:DEGREES
1757
root 21.188006 5.537031 -16.208621 -185.450530 -2.721482 -206.220135
Spine 19.074758 -3.269543 -39.512399
Head 32.489379 -45.347134 19.695209
LeftShoulder -6.511617 -28.642440 9.943375
LeftArm -12.330251 10.302461 -33.673528
LeftForeArm -0.364478 0.000000 9.002910
LeftHand -0.107515 -0.000000 -7.734763
LeftHandThumb1 -26.253704 0.000000 33.147579
RightShoulder -13.577565 -12.480499 12.163950
RightArm 0.891053 -4.551504 73.817232
RightForeArm -34.630170 -0.000000 34.508710
RightHand -9.355546 0.000000 -2.429473
RightHandThumb1 -24.326973 -0.000000 -32.862282
LeftUpLeg -7.107087 29.038490 38.777634
LeftLeg 147.447821 -0.000000 -0.000000
LeftFoot 47.014098 2.527836 20.119144
LeftToeBase 19.672600 -0.000000 -0.000000
RightUpLeg -102.690242 -7.272528 59.711621
RightLeg 124.834123 -0.000000 -0.000000
RightFoot 28.102911 -21.926342 6.272636
RightToeBase 39.704687 -0.000000 -0.000000
1758
root 21.187426 5.533791 -16.209301 -185.521594 -2.771043 -206.240478
Spine 19.256245 -3.388799 -39.370788
Head 32.353434 -45.183034 19.685254
LeftShoulder -6.706359 -28.410743 9.984966
LeftArm -12.755213 10.154990 -34.190277
LeftForeArm 0.069391 -0.000000 9.154011
LeftHand -0.067096 -0.000000 -7.943333
LeftHandThumb1 -26.253704 0.000000 33.147579
RightShoulder -13.618928 -12.517781 12.241293
RightArm 0.836573 -4.567047 73.900110
RightForeArm -34.895061 -0.000000 34.990418
RightHand -9.586069 -0.000000 -2.567752
RightHandThumb1 -24.326973 -0.000000 -32.862282
LeftUpLeg -7.087070 28.956765 38.767211
LeftLeg 147.460770 -0.000000 -0.000000
LeftFoot 47.007123 2.525550 20.123729
LeftToeBase 19.676235 -0.000000 -0.000000
RightUpLeg -102.694749 -7.352116 59.538106
RightLeg 124.856313 -0.000000 -0.000000
RightFoot 28.309687 -21.454314 6.278877
RightToeBase 39.759581 -0.000000 -0.000000
1759
root 21.185505 5.531207 -16.202918 -185.562103 -2.790257 -206.262962
Spine 19.411975 -3.496976 -39.202332
Head 32.211662 -45.019798 19.637163
LeftShoulder -6.868599 -28.194798 9.932611
LeftArm -13.224948 10.378414 -34.727226
LeftForeArm 0.136091 -0.000000 9.494399
LeftHand -0.113252 -0.000000 -8.035663
LeftHandThumb1 -26.253704 0.000000 33.147579
RightShoulder -13.697230 -12.536080 12.277758
RightArm 0.882025 -4.589607 73.986284
RightForeArm -35.044837 0.000000 35.326329
RightHand -9.691256 -0.000000 -2.781615
RightHandThumb1 -24.326973 -0.000000 -32.862282
LeftUpLeg -7.080003 28.953053 38.748697
LeftLeg 147.485801 -0.000000 -0.000000
LeftFoot 46.972743 2.582809 20.139167
LeftToeBase 19.785338 -0.000000 -0.000000
RightUpLeg -102.681957 -7.372878 59.517189
RightLeg 124.850522 -0.000000 -0.000000
RightFoot 28.304852 -21.507477 6.269646
RightToeBase 39.468419 -0.000000 -0.000000
1760
root 21.183716 5.528516 -16.198735 -185.608150 -2.842558 -206.269066
Spine 19.578473 -3.615242 -39.012685
Head 32.030087 -44.824678 19.659546
LeftShoulder -7.046021 -27.862031 9.865771
LeftArm -13.507367 10.033261 -35.197568
LeftForeArm 0.848035 0.000000 9.745023
LeftHand -0.062866 0.000000 -8.170116
LeftHandThumb1 -26.253704 0.000000 33.147579
RightShoulder -13.775222 -12.564196 12.339313
RightArm 0.917509 -4.713768 74.013669
RightForeArm -35.158375 -0.000000 35.770570
RightHand -10.008149 0.000000 -3.017028
RightHandThumb1 -24.326973 -0.000000 -32.862282
LeftUpLeg -7.080149 28.918671 38.736484
LeftLeg 147.518348 -0.000000 -0.000000
LeftFoot 46.937966 2.619142 20.199407
LeftToeBase 19.782997 -0.000000 -0.000000
RightUpLeg -102.694869 -7.396457 59.478045
RightLeg 124.842202 -0.000000 -0.000000
RightFoot 28.387427 -21.464180 6.214164
RightToeBase 39.655827 -0.000000 -0.000000
1761
root 21.182695 5.525715 -16.196056 -185.659564 -2.869923 -206.289917
Spine 19.717405 -3.714378 -38.836468
Head 31.810673 -44.521725 19.693388
LeftShoulder -7.204491 -27.563109 9.804152
LeftArm -13.918337 10.037889 -35.771570
LeftForeArm 1.014359 -0.000000 10.182979
LeftHand -0.020077 0.000000 -8.143687
LeftHandThumb1 -26.253704 0.000000 33.147579
RightShoulder -13.776930 -12.486159 12.337039
RightArm 0.793722 -4.827148 74.064582
RightForeArm -35.251911 -0.000000 36.224222
RightHand -10.279130 0.000000 -3.317482
RightHandThumb1 -24.326973 -0.000000 -32.862282
LeftUpLeg -7.090452 28.851395 38.701044
LeftLeg 147.532931 -0.000000 -0.000000
LeftFoot 46.961658 2.578778 20.162185
LeftToeBase 19.742263 -0.000000 -0.000000
RightUpLeg -102.689022 -7.423251 59.412014
RightLeg 124.851744 -0.000000 -0.000000
RightFoot 28.445339 -21.366246 6.199939
RightToeBase 39.699391 -0.000000 -0.000000
1762
root 21.176591 5.523799 -16.190179 -185.715633 -2.924669 -206.312136
Spine 19.908150 -3.874977 -38.646842
Head 31.569573 -44.186902 19.692129
LeftShoulder -7.402195 -27.298897 9.703345
LeftArm -14.304182 9.688261 -36.257433
LeftForeArm 1.746885 -0.000000 10.660264
LeftHand 0.006343 -0.000000 -8.169341
LeftHandThumb1 -26.253704 0.000000 33.147579
RightShoulder -13.744544 -12.426253 12.312476
RightArm 0.723094 -5.065463 74.080508
RightForeArm -35.345092 0.000000 36.726123
RightHand -10.755700 -0.000000 -3.721583
RightHandThumb1 -24.326973 -0.000000 -32.862282
LeftUpLeg -7.113898 28.812550 38.651384
LeftLeg 147.561772 -0.000000 -0.000000
LeftFoot 47.001165 2.633500 20.146489
LeftToeBase 19.681696 -0.000000 -0.000000
RightUpLeg -102.735490 -7.490015 59.257140
RightLeg 124.890380 -0.000000 -0.000000
RightFoot 28.609728 -20.999996 6.225981
RightToeBase 39.580525 -0.000000 -0.000000
1763
root 21.174720 5.519756 -16.186049 -185.793883 -2.984741 -206.318053
Spine 20.104421 -3.987970 -38.428450
Head 31.254960 -43.795523 19.749483
LeftShoulder -7.548844 -26.990799 9.588854
LeftArm -14.702531 9.609496 -36.843031
LeftForeArm 2.103045 -0.000000 11.270260
LeftHand -0.090048 0.000000 -8.107807
LeftHandThumb1 -26.253704 0.000000 33.147579
RightShoulder -13.728043 -12.361323 12.215163
RightArm 0.685330 -5.201630 74.193420
RightForeArm -35.633324 -0.000000 37.077731
RightHand -10.990708 -0.000000 -4.070663
RightHandThumb1 -24.326973 -0.000000 -32.862282
LeftUpLeg -7.129900 28.716607 38.629700
LeftLeg 147.590720 -0.000000 -0.000000
LeftFoot 47.007711 2.612398 20.097834
LeftToeBase 20.091688 -0.000000 -0.000000
RightUpLeg -102.757692 -7.563241 59.174499
RightLeg 124.909107 -0.000000 -0.000000
RightFoot 28.696526 -20.802642 6.245049
RightToeBase 39.571732 -0.000000 -0.000000
1764
root 21.171834 5.515991 -16.181001 -185.877213 -3.050531 -206.316493
Spine 20.322595 -4.106445 -38.193750
Head 30.879988 -43.377584 19.828938
LeftShoulder -7.745932 -26.667707 9.473016
LeftArm -15.022086 9.421044 -37.423020
LeftForeArm 2.710166 -0.000000 11.897402
LeftHand -0.080627 -0.000000 -7.916525
LeftHandThumb1 -26.253704 0.000000 33.147579
RightShoulder -13.707907 -12.333732 12.177586
RightArm 0.609188 -5.411181 74.234031
RightForeArm -36.083867 -0.000000 37.694546
RightHand -11.456112 -0.000000 -4.498007
RightHandThumb1 -24.326973 -0.000000 -32.862282
LeftUpLeg -7.142610 28.617249 38.618777
LeftLeg 147.620898 -0.000000 -0.000000
LeftFoot 47.023867 2.609532 20.097665
LeftToeBase 19.761042 -0.000000 -0.000000
RightUpLeg -102.781629 -7.647096 59.117718
RightLeg 124.929267 -0.000000 -0.000000
RightFoot 28.743040 -20.644997 6.239838
RightToeBase 39.587679 -0.000000 -0.000000
1765
root 21.166317 5.512837 -16.175876 -185.962004 -3.131666 -206.325856
Spine 20.553751 -4.222229 -37.953559
Head 30.470709 -42.919136 19.913842
LeftShoulder -7.898653 -26.395468 9.313852
LeftArm -15.401310 9.175552 -37.980152
LeftForeArm 3.442994 -0.000000 12.609347
LeftHand 0.014262 -0.000000 -7.769531
LeftHandThumb1 -26.253704 0.000000 33.147579
RightShoulder -13.678513 -12.318299 12.097828
RightArm 0.549546 -5.614375 74.296811
RightForeArm -36.819308 -0.000000 38.283303
RightHand -11.813959 -0.000000 -4.957387
RightHandThumb1 -24.326973 -0.000000 -32.862282
LeftUpLeg -7.162993 28.524072 38.593069
LeftLeg 147.654667 -0.000000 -0.000000
LeftFoot 47.062684 2.618482 20.081325
LeftToeBase 19.677668 -0.000000 -0.000000
RightUpLeg -102.828049 -7.737547 59.072914
RightLeg 124.955815 -0.000000 -0.000000
RightFoot 28.765598 -20.588373 6.290089
RightToeBase 39.598465 -0.000000 -0.000000
1766
root 21.161890 5.509944 -16.168300 -186.051819 -3.231499 -206.346786
Spine 20.799014 -4.341872 -37.720629
Head 30.040514 -42.369575 19.963359
LeftShoulder -8.041695 -26.113708 9.173264
LeftArm -15.752826 8.770639 -38.546094
LeftForeArm 4.376980 -0.000000 13.322134
LeftHand 0.111959 -0.000000 -7.679712
LeftHandThumb1 -26.253704 0.000000 33.147579
RightShoulder -13.638119 -12.356845 11.993126
RightArm 0.551513 -5.753881 74.406312
RightForeArm -37.948451 -0.000000 38.848412
RightHand -12.085676 -0.000000 -5.416297
RightHandThumb1 -24.326973 -0.000000 -32.862282
LeftUpLeg -7.199730 28.440821 38.534626
LeftLeg 147.694613 -0.000000 -0.000000
LeftFoot 47.043178 2.676971 20.076904
LeftToeBase 19.813639 -0.000000 -0.000000
RightUpLeg -102.891272 -7.838623 58.989253
RightLeg 124.988997 -0.000000 -0.000000
RightFoot 28.840901 -20.396011 6.280309
RightToeBase 39.498431 -0.000000 -0.000000
